<mxfile host="Electron" agent="Mozilla/5.0 (Windows NT 10.0; Win64; x64) AppleWebKit/537.36 (KHTML, like Gecko) draw.io/26.0.3 Chrome/130.0.6723.137 Electron/33.2.1 Safari/537.36" version="26.0.3">
  <diagram name="biomed_vlm_v1.0" id="olLuR2-qkcQJW6yekHaO">
    <mxGraphModel dx="2084" dy="1360" grid="1" gridSize="10" guides="1" tooltips="1" connect="1" arrows="1" fold="1" page="1" pageScale="1" pageWidth="1600" pageHeight="1200" math="0" shadow="0">
      <root>
        <mxCell id="0" />
        <mxCell id="1" parent="0" />
        <mxCell id="Iu9lDwpNRBpzqyGJhSqx-49" style="edgeStyle=orthogonalEdgeStyle;rounded=0;orthogonalLoop=1;jettySize=auto;html=1;startArrow=classic;startFill=1;strokeWidth=2;" edge="1" parent="1">
          <mxGeometry relative="1" as="geometry">
            <mxPoint x="495" y="641" as="targetPoint" />
            <mxPoint x="430.4899999999998" y="641" as="sourcePoint" />
          </mxGeometry>
        </mxCell>
        <mxCell id="Iu9lDwpNRBpzqyGJhSqx-1" value="" style="sketch=0;points=[[0,0,0],[0.25,0,0],[0.5,0,0],[0.75,0,0],[1,0,0],[0,1,0],[0.25,1,0],[0.5,1,0],[0.75,1,0],[1,1,0],[0,0.25,0],[0,0.5,0],[0,0.75,0],[1,0.25,0],[1,0.5,0],[1,0.75,0]];points=[[0,0,0],[0.25,0,0],[0.5,0,0],[0.75,0,0],[1,0,0],[0,1,0],[0.25,1,0],[0.5,1,0],[0.75,1,0],[1,1,0],[0,0.25,0],[0,0.5,0],[0,0.75,0],[1,0.25,0],[1,0.5,0],[1,0.75,0]];outlineConnect=0;fontColor=#232F3E;fillColor=#E7157B;strokeColor=#ffffff;dashed=0;verticalLabelPosition=bottom;verticalAlign=top;align=center;html=1;fontSize=12;fontStyle=0;aspect=fixed;shape=mxgraph.aws4.resourceIcon;resIcon=mxgraph.aws4.chatbot;" vertex="1" parent="1">
          <mxGeometry x="317.49" y="590" width="108" height="108" as="geometry" />
        </mxCell>
        <mxCell id="Iu9lDwpNRBpzqyGJhSqx-61" style="edgeStyle=orthogonalEdgeStyle;rounded=0;orthogonalLoop=1;jettySize=auto;html=1;strokeWidth=2;" edge="1" parent="1">
          <mxGeometry relative="1" as="geometry">
            <mxPoint x="308" y="641" as="targetPoint" />
            <mxPoint x="248.40999999999985" y="641" as="sourcePoint" />
          </mxGeometry>
        </mxCell>
        <mxCell id="Iu9lDwpNRBpzqyGJhSqx-2" value="" style="image;aspect=fixed;perimeter=ellipsePerimeter;html=1;align=center;shadow=0;dashed=0;spacingTop=3;image=img/lib/active_directory/user_accounts.svg;" vertex="1" parent="1">
          <mxGeometry x="160" y="605" width="80.41" height="78" as="geometry" />
        </mxCell>
        <mxCell id="Iu9lDwpNRBpzqyGJhSqx-3" value="" style="shape=mxgraph.signs.healthcare.brain;html=1;pointerEvents=1;fillColor=#000000;strokeColor=none;verticalLabelPosition=bottom;verticalAlign=top;align=center;" vertex="1" parent="1">
          <mxGeometry x="500" y="589" width="120" height="109" as="geometry" />
        </mxCell>
        <mxCell id="Iu9lDwpNRBpzqyGJhSqx-35" style="edgeStyle=orthogonalEdgeStyle;rounded=0;orthogonalLoop=1;jettySize=auto;html=1;strokeWidth=2;" edge="1" parent="1" source="Iu9lDwpNRBpzqyGJhSqx-14">
          <mxGeometry relative="1" as="geometry">
            <mxPoint x="1330" y="580" as="targetPoint" />
            <Array as="points">
              <mxPoint x="1331" y="460" />
            </Array>
          </mxGeometry>
        </mxCell>
        <mxCell id="Iu9lDwpNRBpzqyGJhSqx-14" value="" style="image;aspect=fixed;html=1;points=[];align=center;fontSize=12;image=img/lib/azure2/ai_machine_learning/Computer_Vision.svg;" vertex="1" parent="1">
          <mxGeometry x="1170" y="406" width="110" height="110" as="geometry" />
        </mxCell>
        <mxCell id="Iu9lDwpNRBpzqyGJhSqx-62" style="edgeStyle=orthogonalEdgeStyle;rounded=0;orthogonalLoop=1;jettySize=auto;html=1;endArrow=none;endFill=0;strokeWidth=2;dashed=1;" edge="1" parent="1">
          <mxGeometry relative="1" as="geometry">
            <mxPoint x="371.4899999999998" y="583" as="targetPoint" />
            <mxPoint x="371.5" y="504" as="sourcePoint" />
          </mxGeometry>
        </mxCell>
        <mxCell id="Iu9lDwpNRBpzqyGJhSqx-63" style="edgeStyle=orthogonalEdgeStyle;rounded=0;orthogonalLoop=1;jettySize=auto;html=1;strokeWidth=2;dashed=1;" edge="1" parent="1">
          <mxGeometry relative="1" as="geometry">
            <mxPoint x="371.4899999999998" y="307" as="targetPoint" />
            <mxPoint x="371.5" y="428" as="sourcePoint" />
          </mxGeometry>
        </mxCell>
        <mxCell id="Iu9lDwpNRBpzqyGJhSqx-15" value="" style="shape=image;verticalLabelPosition=bottom;labelBackgroundColor=default;verticalAlign=top;aspect=fixed;imageAspect=0;image=https://cdn-icons-png.flaticon.com/512/126/126477.png;" vertex="1" parent="1">
          <mxGeometry x="336.49" y="431" width="70" height="70" as="geometry" />
        </mxCell>
        <mxCell id="Iu9lDwpNRBpzqyGJhSqx-19" value="" style="group" vertex="1" connectable="0" parent="1">
          <mxGeometry x="1280" y="591" width="97.1751412429378" height="130" as="geometry" />
        </mxCell>
        <mxCell id="Iu9lDwpNRBpzqyGJhSqx-56" style="edgeStyle=orthogonalEdgeStyle;rounded=0;orthogonalLoop=1;jettySize=auto;html=1;strokeWidth=2;" edge="1" parent="Iu9lDwpNRBpzqyGJhSqx-19">
          <mxGeometry relative="1" as="geometry">
            <mxPoint x="-115" y="49" as="targetPoint" />
            <mxPoint x="-15" y="49" as="sourcePoint" />
          </mxGeometry>
        </mxCell>
        <mxCell id="Iu9lDwpNRBpzqyGJhSqx-17" value="" style="shape=image;verticalLabelPosition=bottom;labelBackgroundColor=default;verticalAlign=top;aspect=fixed;imageAspect=0;image=https://st4.depositphotos.com/16138592/31568/v/450/depositphotos_315685720-stock-illustration-coding-chip-embedding-icon-line.jpg;clipPath=inset(8% 21.33% 33% 21.33%);" vertex="1" parent="Iu9lDwpNRBpzqyGJhSqx-19">
          <mxGeometry width="97.17514124293785" height="100" as="geometry" />
        </mxCell>
        <mxCell id="Iu9lDwpNRBpzqyGJhSqx-38" style="edgeStyle=orthogonalEdgeStyle;rounded=0;orthogonalLoop=1;jettySize=auto;html=1;startArrow=classic;startFill=1;strokeWidth=2;" edge="1" parent="Iu9lDwpNRBpzqyGJhSqx-19" source="Iu9lDwpNRBpzqyGJhSqx-18">
          <mxGeometry relative="1" as="geometry">
            <mxPoint x="48.590000000000146" y="222" as="targetPoint" />
          </mxGeometry>
        </mxCell>
        <mxCell id="Iu9lDwpNRBpzqyGJhSqx-18" value="&lt;b&gt;&lt;font style=&quot;font-size: 15px;&quot;&gt;Embeddings&lt;/font&gt;&lt;/b&gt;" style="text;html=1;align=center;verticalAlign=middle;whiteSpace=wrap;rounded=0;" vertex="1" parent="Iu9lDwpNRBpzqyGJhSqx-19">
          <mxGeometry x="18.590000000000032" y="100" width="60" height="30" as="geometry" />
        </mxCell>
        <mxCell id="Iu9lDwpNRBpzqyGJhSqx-36" style="edgeStyle=orthogonalEdgeStyle;rounded=0;orthogonalLoop=1;jettySize=auto;html=1;strokeWidth=2;" edge="1" parent="1" source="Iu9lDwpNRBpzqyGJhSqx-21">
          <mxGeometry relative="1" as="geometry">
            <mxPoint x="1330" y="580" as="targetPoint" />
            <Array as="points">
              <mxPoint x="1331" y="460" />
            </Array>
          </mxGeometry>
        </mxCell>
        <mxCell id="Iu9lDwpNRBpzqyGJhSqx-21" value="" style="shape=image;verticalLabelPosition=bottom;labelBackgroundColor=default;verticalAlign=top;aspect=fixed;imageAspect=0;image=https://png.pngtree.com/png-vector/20190514/ourmid/pngtree-emb--file-format-icon-design-png-image_1040671.jpg;clipPath=inset(11.67% 11.33% 9.67% 19.67%);" vertex="1" parent="1">
          <mxGeometry x="1370.69" y="406" width="105.25" height="120" as="geometry" />
        </mxCell>
        <mxCell id="Iu9lDwpNRBpzqyGJhSqx-23" value="" style="verticalLabelPosition=bottom;html=1;verticalAlign=top;align=center;strokeColor=none;fillColor=#00BEF2;shape=mxgraph.azure.automation;pointerEvents=1;" vertex="1" parent="1">
          <mxGeometry x="280" y="390" width="80" height="70" as="geometry" />
        </mxCell>
        <mxCell id="Iu9lDwpNRBpzqyGJhSqx-53" style="edgeStyle=orthogonalEdgeStyle;rounded=0;orthogonalLoop=1;jettySize=auto;html=1;endArrow=none;endFill=0;startArrow=classic;startFill=1;strokeWidth=2;" edge="1" parent="1">
          <mxGeometry relative="1" as="geometry">
            <mxPoint x="580" y="710" as="targetPoint" />
            <mxPoint x="1280" y="885" as="sourcePoint" />
          </mxGeometry>
        </mxCell>
        <mxCell id="Iu9lDwpNRBpzqyGJhSqx-24" value="" style="shape=image;verticalLabelPosition=bottom;labelBackgroundColor=default;verticalAlign=top;aspect=fixed;imageAspect=0;image=https://i.pinimg.com/564x/3b/6a/bc/3b6abc79b14c9d926a5da2f93cb16105.jpg;" vertex="1" parent="1">
          <mxGeometry x="1290" y="820" width="130" height="130" as="geometry" />
        </mxCell>
        <mxCell id="Iu9lDwpNRBpzqyGJhSqx-25" value="" style="group" vertex="1" connectable="0" parent="1">
          <mxGeometry x="160" y="150" width="430" height="150" as="geometry" />
        </mxCell>
        <mxCell id="Iu9lDwpNRBpzqyGJhSqx-33" style="edgeStyle=orthogonalEdgeStyle;rounded=0;orthogonalLoop=1;jettySize=auto;html=1;strokeWidth=2;" edge="1" parent="Iu9lDwpNRBpzqyGJhSqx-25" source="Iu9lDwpNRBpzqyGJhSqx-10">
          <mxGeometry relative="1" as="geometry">
            <mxPoint x="1260" y="250" as="targetPoint" />
          </mxGeometry>
        </mxCell>
        <mxCell id="Iu9lDwpNRBpzqyGJhSqx-34" style="edgeStyle=orthogonalEdgeStyle;rounded=0;orthogonalLoop=1;jettySize=auto;html=1;strokeWidth=2;" edge="1" parent="Iu9lDwpNRBpzqyGJhSqx-25" source="Iu9lDwpNRBpzqyGJhSqx-10">
          <mxGeometry relative="1" as="geometry">
            <mxPoint x="1070" y="250" as="targetPoint" />
          </mxGeometry>
        </mxCell>
        <mxCell id="Iu9lDwpNRBpzqyGJhSqx-10" value="" style="rounded=1;whiteSpace=wrap;html=1;strokeWidth=2;fillColor=#f5f5f5;fontColor=#333333;strokeColor=#666666;container=0;" vertex="1" parent="Iu9lDwpNRBpzqyGJhSqx-25">
          <mxGeometry y="40" width="430" height="110" as="geometry" />
        </mxCell>
        <mxCell id="Iu9lDwpNRBpzqyGJhSqx-22" value="" style="shape=mxgraph.signs.healthcare.out_patient;html=1;pointerEvents=1;fillColor=#000000;strokeColor=none;verticalLabelPosition=bottom;verticalAlign=top;align=center;" vertex="1" parent="Iu9lDwpNRBpzqyGJhSqx-25">
          <mxGeometry x="20" y="45.5" width="56" height="99" as="geometry" />
        </mxCell>
        <mxCell id="Iu9lDwpNRBpzqyGJhSqx-7" value="" style="sketch=0;outlineConnect=0;fontColor=#232F3E;gradientColor=none;fillColor=#232F3D;strokeColor=none;dashed=0;verticalLabelPosition=bottom;verticalAlign=top;align=center;html=1;fontSize=12;fontStyle=0;aspect=fixed;pointerEvents=1;shape=mxgraph.aws4.documents;container=0;" vertex="1" parent="Iu9lDwpNRBpzqyGJhSqx-25">
          <mxGeometry x="240" y="49" width="75.49" height="92" as="geometry" />
        </mxCell>
        <mxCell id="Iu9lDwpNRBpzqyGJhSqx-5" value="" style="dashed=0;outlineConnect=0;html=1;align=center;labelPosition=center;verticalLabelPosition=bottom;verticalAlign=top;shape=mxgraph.webicons.adobe_pdf;fillColor=#F40C0C;gradientColor=#610603;container=0;" vertex="1" parent="Iu9lDwpNRBpzqyGJhSqx-25">
          <mxGeometry x="340" y="55.5" width="70" height="76" as="geometry" />
        </mxCell>
        <mxCell id="Iu9lDwpNRBpzqyGJhSqx-8" value="" style="sketch=0;outlineConnect=0;fontColor=#232F3E;gradientColor=none;fillColor=#ED7100;strokeColor=none;dashed=0;verticalLabelPosition=bottom;verticalAlign=top;align=center;html=1;fontSize=12;fontStyle=0;aspect=fixed;pointerEvents=1;shape=mxgraph.aws4.container_registry_image;container=0;" vertex="1" parent="Iu9lDwpNRBpzqyGJhSqx-25">
          <mxGeometry x="90.41" y="54" width="76" height="76" as="geometry" />
        </mxCell>
        <mxCell id="Iu9lDwpNRBpzqyGJhSqx-9" value="" style="image;aspect=fixed;html=1;points=[];align=center;fontSize=12;image=img/lib/azure2/general/Image.svg;container=0;" vertex="1" parent="Iu9lDwpNRBpzqyGJhSqx-25">
          <mxGeometry x="140" y="88" width="82.19" height="56.5" as="geometry" />
        </mxCell>
        <mxCell id="Iu9lDwpNRBpzqyGJhSqx-11" value="&lt;b&gt;&lt;font style=&quot;font-size: 15px;&quot;&gt;Patients Documents &amp;amp; Reports&lt;/font&gt;&lt;/b&gt;" style="text;html=1;align=center;verticalAlign=middle;whiteSpace=wrap;rounded=0;container=0;" vertex="1" parent="Iu9lDwpNRBpzqyGJhSqx-25">
          <mxGeometry x="90" width="237.5" height="30" as="geometry" />
        </mxCell>
        <mxCell id="Iu9lDwpNRBpzqyGJhSqx-28" value="" style="group" vertex="1" connectable="0" parent="1">
          <mxGeometry x="730" y="540" width="246.23000000000002" height="150" as="geometry" />
        </mxCell>
        <mxCell id="Iu9lDwpNRBpzqyGJhSqx-13" value="" style="image;aspect=fixed;html=1;points=[];align=center;fontSize=12;image=img/lib/azure2/ai_machine_learning/Cognitive_Services.svg;" vertex="1" parent="Iu9lDwpNRBpzqyGJhSqx-28">
          <mxGeometry x="161.23000000000002" width="85" height="60" as="geometry" />
        </mxCell>
        <mxCell id="Iu9lDwpNRBpzqyGJhSqx-59" style="edgeStyle=orthogonalEdgeStyle;rounded=0;orthogonalLoop=1;jettySize=auto;html=1;startArrow=classic;startFill=1;endArrow=none;endFill=0;strokeWidth=2;" edge="1" parent="Iu9lDwpNRBpzqyGJhSqx-28">
          <mxGeometry relative="1" as="geometry">
            <mxPoint x="342" y="102" as="targetPoint" />
            <mxPoint x="252" y="102" as="sourcePoint" />
          </mxGeometry>
        </mxCell>
        <mxCell id="Iu9lDwpNRBpzqyGJhSqx-60" style="edgeStyle=orthogonalEdgeStyle;rounded=0;orthogonalLoop=1;jettySize=auto;html=1;strokeWidth=2;" edge="1" parent="Iu9lDwpNRBpzqyGJhSqx-28">
          <mxGeometry relative="1" as="geometry">
            <mxPoint x="-99" y="101" as="targetPoint" />
            <mxPoint x="-9" y="101" as="sourcePoint" />
          </mxGeometry>
        </mxCell>
        <mxCell id="Iu9lDwpNRBpzqyGJhSqx-26" value="" style="shape=image;verticalLabelPosition=bottom;labelBackgroundColor=default;verticalAlign=top;aspect=fixed;imageAspect=0;image=https://cdn.worldvectorlogo.com/logos/context.svg;clipPath=inset(37.67% 11.33% 36.67% 9.67%);" vertex="1" parent="Iu9lDwpNRBpzqyGJhSqx-28">
          <mxGeometry y="70" width="246.23" height="80" as="geometry" />
        </mxCell>
        <mxCell id="Iu9lDwpNRBpzqyGJhSqx-43" value="&lt;font style=&quot;font-size: 15px;&quot;&gt;&lt;b&gt;Upload Patient Reports and Documents&lt;/b&gt;&lt;/font&gt;" style="text;html=1;align=left;verticalAlign=middle;whiteSpace=wrap;rounded=0;" vertex="1" parent="1">
          <mxGeometry x="410" y="424" width="120" height="74" as="geometry" />
        </mxCell>
        <mxCell id="Iu9lDwpNRBpzqyGJhSqx-44" value="&lt;font style=&quot;font-size: 15px;&quot;&gt;&lt;b&gt;Image-to-Embeddings&lt;/b&gt;&lt;/font&gt;" style="text;html=1;align=center;verticalAlign=middle;whiteSpace=wrap;rounded=0;" vertex="1" parent="1">
          <mxGeometry x="1140" y="526" width="170" height="30" as="geometry" />
        </mxCell>
        <mxCell id="Iu9lDwpNRBpzqyGJhSqx-45" value="&lt;font style=&quot;font-size: 15px;&quot;&gt;&lt;b&gt;Documents-to-Embeddings&lt;/b&gt;&lt;/font&gt;" style="text;html=1;align=center;verticalAlign=middle;whiteSpace=wrap;rounded=0;" vertex="1" parent="1">
          <mxGeometry x="1338.32" y="526" width="211.68" height="30" as="geometry" />
        </mxCell>
        <mxCell id="Iu9lDwpNRBpzqyGJhSqx-48" value="" style="sketch=0;html=1;aspect=fixed;strokeColor=none;shadow=0;fillColor=#3B8DF1;verticalAlign=top;labelPosition=center;verticalLabelPosition=bottom;shape=mxgraph.gcp2.search" vertex="1" parent="1">
          <mxGeometry x="1080" y="605" width="99" height="100" as="geometry" />
        </mxCell>
        <mxCell id="Iu9lDwpNRBpzqyGJhSqx-64" value="&lt;font style=&quot;font-size: 15px;&quot;&gt;&lt;b&gt;Retrieve Knowledge&lt;/b&gt;&lt;/font&gt;" style="text;html=1;align=center;verticalAlign=middle;whiteSpace=wrap;rounded=0;" vertex="1" parent="1">
          <mxGeometry x="1060" y="705" width="170" height="30" as="geometry" />
        </mxCell>
        <mxCell id="Iu9lDwpNRBpzqyGJhSqx-66" value="&lt;b&gt;&lt;font style=&quot;font-size: 15px; color: rgb(0, 127, 255);&quot;&gt;BioMED LLM&lt;/font&gt;&lt;/b&gt;" style="text;html=1;align=center;verticalAlign=middle;whiteSpace=wrap;rounded=0;" vertex="1" parent="1">
          <mxGeometry x="510" y="550" width="110" height="30" as="geometry" />
        </mxCell>
        <mxCell id="Iu9lDwpNRBpzqyGJhSqx-67" value="&lt;b&gt;&lt;font style=&quot;font-size: 15px; color: rgb(0, 127, 255);&quot;&gt;BioMED VLM&lt;/font&gt;&lt;/b&gt;" style="text;html=1;align=center;verticalAlign=middle;whiteSpace=wrap;rounded=0;" vertex="1" parent="1">
          <mxGeometry x="1170" y="550" width="110" height="30" as="geometry" />
        </mxCell>
        <mxCell id="Iu9lDwpNRBpzqyGJhSqx-68" value="&lt;font style=&quot;font-size: 15px;&quot;&gt;&lt;b&gt;BioMED Chatbot&lt;/b&gt;&lt;/font&gt;" style="text;html=1;align=center;verticalAlign=middle;whiteSpace=wrap;rounded=0;" vertex="1" parent="1">
          <mxGeometry x="301.49" y="705" width="140" height="30" as="geometry" />
        </mxCell>
        <mxCell id="Iu9lDwpNRBpzqyGJhSqx-70" value="&lt;font style=&quot;font-size: 15px;&quot;&gt;&lt;b&gt;User Query&lt;/b&gt;&lt;/font&gt;" style="text;html=1;align=center;verticalAlign=middle;whiteSpace=wrap;rounded=0;" vertex="1" parent="1">
          <mxGeometry x="900" y="849" width="93.77" height="30" as="geometry" />
        </mxCell>
        <mxCell id="Iu9lDwpNRBpzqyGJhSqx-42" value="Profile" style="html=1;whiteSpace=wrap;strokeColor=none;fillColor=#0079D6;labelPosition=center;verticalLabelPosition=middle;verticalAlign=top;align=center;fontSize=12;outlineConnect=0;spacingTop=-6;fontColor=#FFFFFF;sketch=0;shape=mxgraph.sitemap.profile;" vertex="1" parent="1">
          <mxGeometry x="1338.32" y="726" width="106.26" height="80" as="geometry" />
        </mxCell>
      </root>
    </mxGraphModel>
  </diagram>
</mxfile>
